Coordinates
version=1
nRows=29
nColumns=24
inDegrees=yes

Units are S.I. units (second, meters, Newtons, ...)
Angles are in degrees.

endheader
time	pelvis_tilt	pelvis_list	pelvis_rotation	pelvis_tx	pelvis_ty	pelvis_tz	hip_flexion_r	hip_adduction_r	hip_rotation_r	knee_angle_r	ankle_angle_r	subtalar_angle_r	mtp_angle_r	hip_flexion_l	hip_adduction_l	hip_rotation_l	knee_angle_l	ankle_angle_l	subtalar_angle_l	mtp_angle_l	lumbar_extension	lumbar_bending	lumbar_rotation
      1.02866667	      0.99450811	     -3.96735937	     -5.57945695	      0.41306216	      1.01389876	      0.36601024	      9.94493661	      8.32026628	      3.01745853	    -17.51954010	     -1.19758030	    -18.30050176	     -3.45554885	     19.96958324	     -9.49884704	    -10.92253750	    -68.92970063	      3.75582274	    -15.82306348	     -9.89288478	    -12.86661236	      5.27216360	      7.15449085
      1.03283333	      1.22931809	     -3.87326258	     -5.86284144	      0.41842671	      1.01523910	      0.36679005	      9.13616023	      8.22444987	      3.33973292	    -17.10976931	     -1.14086883	    -18.25266472	     -3.43003937	     20.11563297	     -9.46887661	    -11.19243708	    -68.00130388	      3.84114669	    -15.89556566	     -9.90930000	    -13.10127809	      5.03119457	      7.40526274
      1.03700000	      1.44262991	     -3.77809183	     -6.14674251	      0.42376617	      1.01650132	      0.36759427	      8.35508177	      8.12532979	      3.67209341	    -16.70336833	     -1.09243458	    -18.21671829	     -3.40777756	     20.27055427	     -9.44615516	    -11.47169363	    -67.02948868	      3.92104963	    -15.98191559	     -9.92990131	    -13.31472022	      4.77551833	      7.64173040
      1.04116667	      1.67263859	     -3.68957893	     -6.42987973	      0.42911532	      1.01776469	      0.36837374	      7.55222024	      8.02211830	      4.00371551	    -16.28798609	     -1.04911646	    -18.19980969	     -3.38777996	     20.38123458	     -9.42959597	    -11.76450102	    -65.99972413	      4.00392296	    -16.06978488	     -9.95640001	    -13.53927020	      4.54735204	      7.89352386
      1.04533333	      1.86391238	     -3.59185765	     -6.71561088	      0.43443683	      1.01891466	      0.36915915	      6.80391449	      7.90751458	      4.33898281	    -15.89194019	     -0.99438968	    -18.18044506	     -3.37095611	     20.52050378	     -9.40921533	    -12.06569446	    -64.92842607	      4.07811134	    -16.17103029	     -9.98811159	    -13.72238327	      4.30143154	      8.11573243
      1.04950000	      2.09454532	     -3.50894942	     -6.99972483	      0.43974963	      1.02009240	      0.36994994	      6.00772049	      7.79663102	      4.67564961	    -15.48080678	     -0.96322697	    -18.17866964	     -3.35784995	     20.59162751	     -9.40591859	    -12.38296859	    -63.80365732	      4.15312209	    -16.27288483	    -10.02816235	    -13.94728176	      4.06706943	      8.36278539
      1.05366667	      2.28351843	     -3.41802265	     -7.28278703	      0.44504051	      1.02115073	      0.37072701	      5.26971943	      7.67579625	      5.02054401	    -15.09255678	     -0.90721198	    -18.17693799	     -3.34801937	     20.69389155	     -9.39718235	    -12.70469105	    -62.63809610	      4.21703367	    -16.38457843	    -10.07391387	    -14.12730257	      3.82645806	      8.57407266
      1.05783333	      2.49454015	     -3.34323347	     -7.56986906	      0.45028391	      1.02219597	      0.37152690	      4.50379984	      7.56584415	      5.39503728	    -14.68884928	     -0.86283140	    -18.18189289	     -3.34137695	     20.75296258	     -9.40872395	    -13.03833324	    -61.43098191	      4.28890382	    -16.48900549	    -10.13292590	    -14.34777894	      3.58625948	      8.82405059
      1.06200000	      2.68491494	     -3.28347301	     -7.86171132	      0.45554248	      1.02315720	      0.37232697	      3.76774023	      7.46574417	      5.75251209	    -14.30355062	     -0.82368195	    -18.17381201	     -3.33925765	     20.81083249	     -9.44577475	    -13.39083808	    -60.18614880	      4.36699443	    -16.58893261	    -10.20938984	    -14.53380889	      3.37859746	      9.07446927
      1.06616667	      2.83929618	     -3.21287497	     -8.14302540	      0.46078520	      1.02401985	      0.37310501	      3.08087139	      7.35227338	      6.10278547	    -13.93180956	     -0.77350462	    -18.19039622	     -3.34342932	     20.89411667	     -9.46847305	    -13.73663905	    -58.89332833	      4.40213436	    -16.69764617	    -10.29891048	    -14.67814511	      3.16236157	      9.29316904
      1.07033333	      3.00027459	     -3.14994528	     -8.42012842	      0.46601647	      1.02483852	      0.37386497	      2.39013625	      7.23857598	      6.45233296	    -13.56398740	     -0.72841006	    -18.21489157	     -3.35337645	     20.95006680	     -9.49750448	    -14.09237707	    -57.55940805	      4.42861661	    -16.81113083	    -10.39858269	    -14.83117548	      2.94509497	      9.50350986
      1.07450000	      3.09886890	     -3.08374574	     -8.66832085	      0.47123865	      1.02548309	      0.37455944	      1.78526103	      7.12434864	      6.75943286	    -13.23245217	     -0.63746051	    -18.28342377	     -3.36433279	     21.07263462	     -9.51574381	    -14.41750687	    -56.19697949	      4.40636715	    -16.98136764	    -10.47755773	    -14.90650319	      2.74307238	      9.63147455
      1.07866667	      3.28526090	     -3.04676697	     -8.96398454	      0.47642407	      1.02625383	      0.37535706	      1.06994896	      7.02246543	      7.14481999	    -12.86439778	     -0.60705198	    -18.27010296	     -3.38529475	     21.04964865	     -9.57985393	    -14.81581976	    -54.77723832	      4.42993891	    -17.04419925	    -10.59924950	    -15.10622524	      2.54867118	      9.91595319
      1.08283333	      3.39997771	     -3.01410206	     -9.22617670	      0.48161325	      1.02682770	      0.37609088	      0.44838829	      6.93126663	      7.47918293	    -12.53466998	     -0.53810361	    -18.30262735	     -3.41096735	     21.10666532	     -9.64322400	    -15.17995491	    -53.33834274	      4.40160127	    -17.16517045	    -10.72260672	    -15.20938519	      2.37675065	     10.09499169
      1.08700000	      3.44915938	     -2.97924828	     -9.46467287	      0.48680965	      1.02723949	      0.37672790	     -0.09109646	      6.83930517	      7.78384995	    -12.22458145	     -0.44401727	    -18.35371456	     -3.43283598	     21.22816514	     -9.69334382	    -15.51354214	    -51.87060941	      4.35114958	    -17.32968657	    -10.82449475	    -15.24271175	      2.22207145	     10.22419129
      1.09116667	      3.57545624	     -2.97739506	     -9.73818490	      0.49200267	      1.02773905	      0.37748591	     -0.72468964	      6.76597432	      8.11257122	    -11.89714544	     -0.39875668	    -18.36078774	     -3.46678010	     21.22202096	     -9.79916752	    -15.92837611	    -50.36030850	      4.30767825	    -17.38390600	    -10.96731711	    -15.36907427	      2.07582390	     10.46564063
      1.09533333	      3.58844947	     -2.96999322	     -9.95236637	      0.49719274	      1.02796696	      0.37806806	     -1.21706542	      6.70060477	      8.38832847	    -11.61075289	     -0.28728980	    -18.41427777	     -3.49118379	     21.35755771	     -9.87289776	    -16.25296864	    -48.84276922	      4.23531194	    -17.55684758	    -11.06582115	    -15.36702464	      1.96469701	     10.55535047
      1.09950000	      3.68201407	     -2.99057588	    -10.21296309	      0.50238273	      1.02830563	      0.37877215	     -1.80737157	      6.64368800	      8.69539792	    -11.30435140	     -0.21487493	    -18.40700739	     -3.52673412	     21.35348162	     -9.99790435	    -16.67774159	    -47.27115400	      4.13798991	    -17.60718437	    -11.20444506	    -15.46532121	      1.85868610	     10.78447690
      1.10366667	      3.73448728	     -3.02176569	    -10.44602768	      0.50756317	      1.02850149	      0.37939453	     -2.34344630	      6.60179694	      8.98326525	    -11.02299610	     -0.13145172	    -18.42789830	     -3.56443496	     21.39174235	    -10.11878411	    -17.06398416	    -45.68318050	      4.03853051	    -17.68723629	    -11.34460370	    -15.51125274	      1.77386405	     10.94264766
      1.10783333	      3.70828132	     -3.05971809	    -10.63168129	      0.51276680	      1.02849030	      0.37988479	     -2.78884481	      6.57644691	      9.21651948	    -10.75787643	     -0.02136763	    -18.46558534	     -3.58890942	     21.52494554	    -10.22968428	    -17.38741211	    -44.09518813	      3.94969560	    -17.81331002	    -11.43826230	    -15.47490049	      1.73018370	     11.01673079
      1.11200000	      3.69606217	     -3.11041143	    -10.83568248	      0.51799312	      1.02847122	      0.38041398	     -3.25153511	      6.55642303	      9.45411199	    -10.49433081	      0.08367044	    -18.46420489	     -3.61217312	     21.61064689	    -10.36289260	    -17.76219238	    -42.46863831	      3.82407672	    -17.88012144	    -11.53284179	    -15.45340264	      1.69288467	     11.14051342
      1.11616667	      3.76780908	     -3.20697814	    -11.05460143	      0.52317907	      1.02852437	      0.38099314	     -3.81377551	      6.56515431	      9.70833610	    -10.22388030	      0.17521816	    -18.45905718	     -3.64920899	     21.57698309	    -10.54648063	    -18.19394979	    -40.82329131	      3.70289462	    -17.83586559	    -11.67297474	    -15.54197517	      1.68155024	     11.35634763
      1.12033333	      3.71717631	     -3.30374971	    -11.23272272	      0.52839759	      1.02830448	      0.38142929	     -4.22934994	      6.59349599	      9.91073805	     -9.99268002	      0.31747154	    -18.44444346	     -3.67632839	     21.68927184	    -10.71956174	    -18.55916073	    -39.18347279	      3.55995349	    -17.85368335	    -11.78840874	    -15.49358984	      1.71792811	     11.45636229
      1.12450000	      3.60685186	     -3.40561714	    -11.36595682	      0.53366377	      1.02792095	      0.38175009	     -4.58381172	      6.63602301	     10.06406116	     -9.75839679	      0.44182191	    -18.43104090	     -3.68929889	     21.87209582	    -10.87910501	    -18.86382675	    -37.54204171	      3.44447575	    -17.86550893	    -11.85276293	    -15.37371718	      1.78583896	     11.48517623
      1.12866667	      3.60982792	     -3.54020923	    -11.54239720	      0.53888808	      1.02768139	      0.38215579	     -5.06379592	      6.68383604	     10.25150790	     -9.52784504	      0.58717054	    -18.38468491	     -3.70648939	     21.88950331	    -11.07944085	    -19.28133197	    -35.86486193	      3.29896517	    -17.76600220	    -11.94961812	    -15.39734527	      1.85341700	     11.64242597
      1.13283333	      3.43815295	     -3.70419424	    -11.58946469	      0.54417886	      1.02704544	      0.38223756	     -5.35773081	      6.79888880	     10.28925915	     -9.30335990	      0.69534736	    -18.34299867	     -3.70769575	     22.15793614	    -11.27334706	    -19.49873105	    -34.24666983	      3.17604506	    -17.65658709	    -11.97173344	    -15.22942759	      2.04211375	     11.62731181
      1.13700000	      3.32019172	     -3.83038240	    -11.73215065	      0.54950861	      1.02649200	      0.38250806	     -5.69747823	      6.85520077	     10.41034587	     -9.10802068	      0.89200336	    -18.25666090	     -3.70606776	     22.30189284	    -11.45311012	    -19.88188015	    -32.56362164	      3.05463874	    -17.57223966	    -12.00603555	    -15.08868898	      2.13848010	     11.64045307
      1.14116667	      3.28415673	     -4.00856104	    -11.86834480	      0.55475336	      1.02600973	      0.38274166	     -6.13734412	      6.94565371	     10.55958376	     -8.89491356	      1.05052397	    -18.17421988	     -3.69713584	     22.34846025	    -11.66947768	    -20.27705248	    -30.87883720	      2.93216104	    -17.33497158	    -12.05236225	    -15.09479097	      2.28032931	     11.80738844
      1.14533333	      3.09788184	     -4.21790891	    -11.87583732	      0.56005453	      1.02516427	      0.38266011	     -6.41354423	      7.10501004	     10.54162762	     -8.69814245	      1.20258230	    -18.09658591	     -3.69167353	     22.62353458	    -11.87950701	    -20.48165221	    -29.25575061	      2.80698793	    -17.10665713	    -12.05863214	    -14.92895943	      2.54097834	     11.77196464
